<svg width="1200" height="1000" xmlns="http://www.w3.org/2000/svg">
  <defs>
    <!-- Define gradients and styles -->
    <linearGradient id="inputGrad" x1="0%" y1="0%" x2="100%" y2="100%">
      <stop offset="0%" style="stop-color:#e3f2fd;stop-opacity:1" />
      <stop offset="100%" style="stop-color:#bbdefb;stop-opacity:1" />
    </linearGradient>
    <linearGradient id="filterGrad" x1="0%" y1="0%" x2="100%" y2="100%">
      <stop offset="0%" style="stop-color:#fff3e0;stop-opacity:1" />
      <stop offset="100%" style="stop-color:#ffcc02;stop-opacity:1" />
    </linearGradient>
    <linearGradient id="dbGrad" x1="0%" y1="0%" x2="100%" y2="100%">
      <stop offset="0%" style="stop-color:#e8f5e8;stop-opacity:1" />
      <stop offset="100%" style="stop-color:#c8e6c9;stop-opacity:1" />
    </linearGradient>
    <linearGradient id="assessGrad" x1="0%" y1="0%" x2="100%" y2="100%">
      <stop offset="0%" style="stop-color:#fce4ec;stop-opacity:1" />
      <stop offset="100%" style="stop-color:#f8bbd9;stop-opacity:1" />
    </linearGradient>
    <linearGradient id="outputGrad" x1="0%" y1="0%" x2="100%" y2="100%">
      <stop offset="0%" style="stop-color:#f3e5f5;stop-opacity:1" />
      <stop offset="100%" style="stop-color:#ce93d8;stop-opacity:1" />
    </linearGradient>
    
    <!-- Arrow marker -->
    <defs>
      <marker id="arrowhead" markerWidth="10" markerHeight="7" 
       refX="9" refY="3.5" orient="auto">
        <polygon points="0 0, 10 3.5, 0 7" fill="#666" />
      </marker>
    </defs>
  </defs>
  
  <!-- Title -->
  <text x="600" y="25" text-anchor="middle" font-family="Arial, sans-serif" font-size="20" font-weight="bold" fill="#333">
    BOLD Library Curation Pipeline
  </text>
  
  <!-- Input Data -->
  <rect x="520" y="50" width="160" height="40" rx="5" fill="url(#inputGrad)" stroke="#1976d2" stroke-width="2"/>
  <text x="600" y="75" text-anchor="middle" font-family="Arial, sans-serif" font-size="12" font-weight="bold" fill="#1565c0">
    BOLD TSV Input
  </text>
  
  <!-- Conditional Filtering Branch -->
  <g id="filtering-branch">
    <!-- Decision Diamond -->
    <polygon points="600,120 650,140 600,160 550,140" fill="#fff9c4" stroke="#f57f17" stroke-width="2"/>
    <text x="600" y="145" text-anchor="middle" font-family="Arial, sans-serif" font-size="10" fill="#e65100">
      Filter?
    </text>
    
    <!-- YES path - Prescoring Filter -->
    <rect x="320" y="190" width="140" height="40" rx="5" fill="url(#filterGrad)" stroke="#ff8f00" stroke-width="2"/>
    <text x="390" y="210" text-anchor="middle" font-family="Arial, sans-serif" font-size="11" font-weight="bold" fill="#e65100">
      prescoring_filter
    </text>
    <text x="390" y="222" text-anchor="middle" font-family="Arial, sans-serif" font-size="9" fill="#bf360c">
      (taxa/country/BIN)
    </text>
    
    <!-- NO path - Skip Filter -->
    <rect x="740" y="190" width="140" height="40" rx="5" fill="#f5f5f5" stroke="#757575" stroke-width="2"/>
    <text x="810" y="210" text-anchor="middle" font-family="Arial, sans-serif" font-size="11" font-weight="bold" fill="#424242">
      skip_prescoring_filter
    </text>
    <text x="810" y="222" text-anchor="middle" font-family="Arial, sans-serif" font-size="9" fill="#616161">
      (marker only)
    </text>
  </g>
  
  <!-- Database Creation -->
  <rect x="520" y="270" width="160" height="40" rx="5" fill="url(#dbGrad)" stroke="#388e3c" stroke-width="2"/>
  <text x="600" y="290" text-anchor="middle" font-family="Arial, sans-serif" font-size="11" font-weight="bold" fill="#2e7d32">
    create_load_db
  </text>
  <text x="600" y="302" text-anchor="middle" font-family="Arial, sans-serif" font-size="9" fill="#1b5e20">
    (dynamic input)
  </text>
  
  <!-- Database Setup Steps -->
  <rect x="440" y="340" width="120" height="30" rx="3" fill="url(#dbGrad)" stroke="#388e3c" stroke-width="1"/>
  <text x="500" y="358" text-anchor="middle" font-family="Arial, sans-serif" font-size="10" fill="#2e7d32">load_criteria</text>
  
  <rect x="580" y="340" width="120" height="30" rx="3" fill="url(#dbGrad)" stroke="#388e3c" stroke-width="1"/>
  <text x="640" y="358" text-anchor="middle" font-family="Arial, sans-serif" font-size="10" fill="#2e7d32">apply_indexes</text>
  
  <rect x="520" y="390" width="160" height="30" rx="3" fill="url(#dbGrad)" stroke="#388e3c" stroke-width="1"/>
  <text x="600" y="408" text-anchor="middle" font-family="Arial, sans-serif" font-size="10" fill="#2e7d32">load_taxonomy</text>
  
  <!-- Conditional Target List Branch -->
  <polygon points="600,450 650,470 600,490 550,470" fill="#fff9c4" stroke="#f57f17" stroke-width="2"/>
  <text x="600" y="475" text-anchor="middle" font-family="Arial, sans-serif" font-size="10" fill="#e65100">
    Target List?
  </text>
  
  <!-- YES path - Import Target List -->
  <rect x="400" y="520" width="140" height="30" rx="3" fill="url(#filterGrad)" stroke="#ff8f00" stroke-width="1"/>
  <text x="470" y="538" text-anchor="middle" font-family="Arial, sans-serif" font-size="10" fill="#e65100">import_target_list</text>
  
  <!-- NO path - Skip Target List -->
  <rect x="660" y="520" width="140" height="30" rx="3" fill="#f5f5f5" stroke="#757575" stroke-width="1"/>
  <text x="730" y="538" text-anchor="middle" font-family="Arial, sans-serif" font-size="10" fill="#424242">skip_target_list</text>
  
  <!-- Assessment Criteria (16 rules in a grid) -->
  <text x="600" y="585" text-anchor="middle" font-family="Arial, sans-serif" font-size="14" font-weight="bold" fill="#333">
    Quality Criteria Assessment (16 Rules)
  </text>
  
  <!-- Row 1 -->
  <rect x="180" y="600" width="90" height="25" rx="2" fill="url(#assessGrad)" stroke="#c2185b" stroke-width="1"/>
  <text x="225" y="615" text-anchor="middle" font-family="Arial, sans-serif" font-size="8" fill="#880e4f">COLLECTION_DATE</text>
  
  <rect x="280" y="600" width="90" height="25" rx="2" fill="url(#assessGrad)" stroke="#c2185b" stroke-width="1"/>
  <text x="325" y="615" text-anchor="middle" font-family="Arial, sans-serif" font-size="8" fill="#880e4f">COLLECTORS</text>
  
  <rect x="380" y="600" width="90" height="25" rx="2" fill="url(#assessGrad)" stroke="#c2185b" stroke-width="1"/>
  <text x="425" y="615" text-anchor="middle" font-family="Arial, sans-serif" font-size="8" fill="#880e4f">COUNTRY</text>
  
  <rect x="480" y="600" width="90" height="25" rx="2" fill="url(#assessGrad)" stroke="#c2185b" stroke-width="1"/>
  <text x="525" y="615" text-anchor="middle" font-family="Arial, sans-serif" font-size="8" fill="#880e4f">COORD</text>
  
  <!-- Row 2 -->
  <rect x="180" y="635" width="90" height="25" rx="2" fill="url(#assessGrad)" stroke="#c2185b" stroke-width="1"/>
  <text x="225" y="650" text-anchor="middle" font-family="Arial, sans-serif" font-size="8" fill="#880e4f">ID_METHOD</text>
  
  <rect x="280" y="635" width="90" height="25" rx="2" fill="url(#assessGrad)" stroke="#c2185b" stroke-width="1"/>
  <text x="325" y="650" text-anchor="middle" font-family="Arial, sans-serif" font-size="8" fill="#880e4f">IDENTIFIER</text>
  
  <rect x="380" y="635" width="90" height="25" rx="2" fill="url(#assessGrad)" stroke="#c2185b" stroke-width="1"/>
  <text x="425" y="650" text-anchor="middle" font-family="Arial, sans-serif" font-size="8" fill="#880e4f">INSTITUTION</text>
  
  <rect x="480" y="635" width="90" height="25" rx="2" fill="url(#assessGrad)" stroke="#c2185b" stroke-width="1"/>
  <text x="525" y="650" text-anchor="middle" font-family="Arial, sans-serif" font-size="8" fill="#880e4f">MUSEUM_ID</text>
  
  <!-- Row 3 -->
  <rect x="580" y="600" width="90" height="25" rx="2" fill="url(#assessGrad)" stroke="#c2185b" stroke-width="1"/>
  <text x="625" y="615" text-anchor="middle" font-family="Arial, sans-serif" font-size="8" fill="#880e4f">PUBLIC_VOUCHER</text>
  
  <rect x="680" y="600" width="90" height="25" rx="2" fill="url(#assessGrad)" stroke="#c2185b" stroke-width="1"/>
  <text x="725" y="615" text-anchor="middle" font-family="Arial, sans-serif" font-size="8" fill="#880e4f">SEQ_QUALITY</text>
  
  <rect x="780" y="600" width="90" height="25" rx="2" fill="url(#assessGrad)" stroke="#c2185b" stroke-width="1"/>
  <text x="825" y="615" text-anchor="middle" font-family="Arial, sans-serif" font-size="8" fill="#880e4f">SITE</text>
  
  <rect x="880" y="600" width="90" height="25" rx="2" fill="url(#assessGrad)" stroke="#c2185b" stroke-width="1"/>
  <text x="925" y="615" text-anchor="middle" font-family="Arial, sans-serif" font-size="8" fill="#880e4f">REGION</text>
  
  <!-- Row 4 -->
  <rect x="580" y="635" width="90" height="25" rx="2" fill="url(#assessGrad)" stroke="#c2185b" stroke-width="1"/>
  <text x="625" y="650" text-anchor="middle" font-family="Arial, sans-serif" font-size="8" fill="#880e4f">SECTOR</text>
  
  <rect x="680" y="635" width="90" height="25" rx="2" fill="url(#assessGrad)" stroke="#c2185b" stroke-width="1"/>
  <text x="725" y="650" text-anchor="middle" font-family="Arial, sans-serif" font-size="8" fill="#880e4f">SPECIES_ID</text>
  
  <rect x="780" y="635" width="90" height="25" rx="2" fill="url(#assessGrad)" stroke="#c2185b" stroke-width="1"/>
  <text x="825" y="650" text-anchor="middle" font-family="Arial, sans-serif" font-size="8" fill="#880e4f">TYPE_SPECIMEN</text>
  
  <rect x="880" y="635" width="90" height="25" rx="2" fill="url(#assessGrad)" stroke="#c2185b" stroke-width="1"/>
  <text x="925" y="650" text-anchor="middle" font-family="Arial, sans-serif" font-size="8" fill="#880e4f">HAS_IMAGE</text>
  
  <!-- Consolidation Steps -->
  <rect x="520" y="690" width="160" height="30" rx="3" fill="url(#outputGrad)" stroke="#7b1fa2" stroke-width="1"/>
  <text x="600" y="708" text-anchor="middle" font-family="Arial, sans-serif" font-size="10" fill="#4a148c">concatenate</text>
  
  <rect x="520" y="730" width="160" height="30" rx="3" fill="url(#outputGrad)" stroke="#7b1fa2" stroke-width="1"/>
  <text x="600" y="748" text-anchor="middle" font-family="Arial, sans-serif" font-size="10" fill="#4a148c">import_concatenated</text>
  
  <!-- Final Output -->
  <rect x="520" y="780" width="160" height="40" rx="5" fill="url(#outputGrad)" stroke="#7b1fa2" stroke-width="2"/>
  <text x="600" y="800" text-anchor="middle" font-family="Arial, sans-serif" font-size="11" font-weight="bold" fill="#4a148c">
    output_filtered_data
  </text>
  <text x="600" y="812" text-anchor="middle" font-family="Arial, sans-serif" font-size="9" fill="#6a1b9a">
    (results/result_output.tsv)
  </text>
  
  <!-- Arrows -->
  <!-- Input to decision -->
  <line x1="600" y1="90" x2="600" y2="120" stroke="#666" stroke-width="2" marker-end="url(#arrowhead)"/>
  
  <!-- Decision to filter YES -->
  <line x1="575" y1="140" x2="450" y2="180" stroke="#666" stroke-width="2" marker-end="url(#arrowhead)"/>
  <text x="500" y="165" font-family="Arial, sans-serif" font-size="10" fill="#e65100">YES</text>
  
  <!-- Decision to filter NO -->
  <line x1="625" y1="140" x2="750" y2="180" stroke="#666" stroke-width="2" marker-end="url(#arrowhead)"/>
  <text x="700" y="165" font-family="Arial, sans-serif" font-size="10" fill="#616161">NO</text>
  
  <!-- Filter paths to database -->
  <line x1="390" y1="230" x2="580" y2="260" stroke="#666" stroke-width="2" marker-end="url(#arrowhead)"/>
  <line x1="810" y1="230" x2="620" y2="260" stroke="#666" stroke-width="2" marker-end="url(#arrowhead)"/>
  
  <!-- Database flow -->
  <line x1="600" y1="310" x2="500" y2="340" stroke="#666" stroke-width="1" marker-end="url(#arrowhead)"/>
  <line x1="600" y1="310" x2="640" y2="340" stroke="#666" stroke-width="1" marker-end="url(#arrowhead)"/>
  <line x1="500" y1="370" x2="590" y2="385" stroke="#666" stroke-width="1" marker-end="url(#arrowhead)"/>
  <line x1="640" y1="370" x2="610" y2="385" stroke="#666" stroke-width="1" marker-end="url(#arrowhead)"/>
  
  <!-- Taxonomy to target decision -->
  <line x1="600" y1="420" x2="600" y2="450" stroke="#666" stroke-width="2" marker-end="url(#arrowhead)"/>
  
  <!-- Target decision branches -->
  <line x1="575" y1="470" x2="470" y2="510" stroke="#666" stroke-width="2" marker-end="url(#arrowhead)"/>
  <text x="520" y="495" font-family="Arial, sans-serif" font-size="10" fill="#e65100">YES</text>
  
  <line x1="625" y1="470" x2="730" y2="510" stroke="#666" stroke-width="2" marker-end="url(#arrowhead)"/>
  <text x="680" y="495" font-family="Arial, sans-serif" font-size="10" fill="#616161">NO</text>
  
  <!-- Target paths to assessment -->
  <line x1="470" y1="550" x2="580" y2="580" stroke="#666" stroke-width="2" marker-end="url(#arrowhead)"/>
  <line x1="730" y1="550" x2="620" y2="580" stroke="#666" stroke-width="2" marker-end="url(#arrowhead)"/>
  
  <!-- Assessment to consolidation -->
  <line x1="600" y1="665" x2="600" y2="690" stroke="#666" stroke-width="2" marker-end="url(#arrowhead)"/>
  <line x1="600" y1="720" x2="600" y2="730" stroke="#666" stroke-width="1" marker-end="url(#arrowhead)"/>
  <line x1="600" y1="760" x2="600" y2="780" stroke="#666" stroke-width="2" marker-end="url(#arrowhead)"/>
  
  <!-- Legend -->
  <g id="legend">
    <text x="50" y="880" font-family="Arial, sans-serif" font-size="14" font-weight="bold" fill="#333">Legend:</text>
    
    <rect x="50" y="890" width="15" height="15" fill="url(#inputGrad)" stroke="#1976d2"/>
    <text x="75" y="902" font-family="Arial, sans-serif" font-size="11" fill="#333">Input Data</text>
    
    <rect x="50" y="910" width="15" height="15" fill="url(#filterGrad)" stroke="#ff8f00"/>
    <text x="75" y="922" font-family="Arial, sans-serif" font-size="11" fill="#333">Filtering</text>
    
    <rect x="180" y="890" width="15" height="15" fill="url(#dbGrad)" stroke="#388e3c"/>
    <text x="205" y="902" font-family="Arial, sans-serif" font-size="11" fill="#333">Database Operations</text>
    
    <rect x="180" y="910" width="15" height="15" fill="url(#assessGrad)" stroke="#c2185b"/>
    <text x="205" y="922" font-family="Arial, sans-serif" font-size="11" fill="#333">Quality Assessment</text>
    
    <rect x="350" y="890" width="15" height="15" fill="url(#outputGrad)" stroke="#7b1fa2"/>
    <text x="375" y="902" font-family="Arial, sans-serif" font-size="11" fill="#333">Output Processing</text>
    
    <polygon points="350,910 365,917 350,925 350,917" fill="#fff9c4" stroke="#f57f17"/>
    <text x="375" y="922" font-family="Arial, sans-serif" font-size="11" fill="#333">Conditional Decision</text>
  </g>
  
  <!-- Notes -->
  <text x="50" y="960" font-family="Arial, sans-serif" font-size="12" font-weight="bold" fill="#333">Key Features:</text>
  <text x="50" y="975" font-family="Arial, sans-serif" font-size="10" fill="#666">• Dynamic input selection: Original file used directly when filtering disabled</text>
  <text x="50" y="988" font-family="Arial, sans-serif" font-size="10" fill="#666">• Conditional execution: Rules adapt based on configuration (filtering, target lists)</text>
  <text x="50" y="1001" font-family="Arial, sans-serif" font-size="10" fill="#666">• Resource optimization: No unnecessary file operations when features disabled</text>
</svg>